# xmcd
#
# Track frame offsets:
#	150
#	17607
#	30510
#	43715
#	56792
#	71840
#	87800
#	103130
#	114850
#	130482
#	145795
#	159037
#	176545
#	192282
#
# Disc length: 2750 seconds
#
# Revision: 1
# Processed by: cddbd v1.5.2PL0 Copyright (c) Steve Scherf et al.
# Submitted via: audiograbber 1.83.01
#
DISCID=b60abc0e
DTITLE=Lasse Stefanz - Bara Du
DYEAR=1995
DGENRE=Dance
TTITLE0=Orden Som Mor Min Sa
TTITLE1=Visst Är Det Kärlek
TTITLE2=Nyanser
TTITLE3=City Girls
TTITLE4=Nu Får Det Vara Slut
TTITLE5=Jag Ber Dig, Förlåt Mig
TTITLE6=Fyll Mitt Hjärta Med Sång
TTITLE7=Midsommarafton
TTITLE8=En Flicka Från Igår
TTITLE9=Tack Vare Dej
TTITLE10=Kärlekstrubbel
TTITLE11=Det Är Bara Du
TTITLE12=Mitt Hjärta Tar Semester Nu
TTITLE13=Jag Ångrar Ingenting
EXTD=
EXTT0=
EXTT1=
EXTT2=
EXTT3=
EXTT4=
EXTT5=
EXTT6=
EXTT7=
EXTT8=
EXTT9=
EXTT10=
EXTT11=
EXTT12=
EXTT13=
PLAYORDER=
